<svg width="10" height="13" viewBox="0 0 10 13" fill="none" xmlns="http://www.w3.org/2000/svg">
<path d="M3.30357 7.3125H2.41071C2.26339 7.3125 2.14286 7.17539 2.14286 7.00781V5.99219C2.14286 5.82461 2.26339 5.6875 2.41071 5.6875H3.30357C3.45089 5.6875 3.57143 5.82461 3.57143 5.99219V7.00781C3.57143 7.17539 3.45089 7.3125 3.30357 7.3125ZM5.71429 7.00781V5.99219C5.71429 5.82461 5.59375 5.6875 5.44643 5.6875H4.55357C4.40625 5.6875 4.28571 5.82461 4.28571 5.99219V7.00781C4.28571 7.17539 4.40625 7.3125 4.55357 7.3125H5.44643C5.59375 7.3125 5.71429 7.17539 5.71429 7.00781ZM7.85714 7.00781V5.99219C7.85714 5.82461 7.73661 5.6875 7.58929 5.6875H6.69643C6.54911 5.6875 6.42857 5.82461 6.42857 5.99219V7.00781C6.42857 7.17539 6.54911 7.3125 6.69643 7.3125H7.58929C7.73661 7.3125 7.85714 7.17539 7.85714 7.00781ZM5.71429 9.44531V8.42969C5.71429 8.26211 5.59375 8.125 5.44643 8.125H4.55357C4.40625 8.125 4.28571 8.26211 4.28571 8.42969V9.44531C4.28571 9.61289 4.40625 9.75 4.55357 9.75H5.44643C5.59375 9.75 5.71429 9.61289 5.71429 9.44531ZM3.57143 9.44531V8.42969C3.57143 8.26211 3.45089 8.125 3.30357 8.125H2.41071C2.26339 8.125 2.14286 8.26211 2.14286 8.42969V9.44531C2.14286 9.61289 2.26339 9.75 2.41071 9.75H3.30357C3.45089 9.75 3.57143 9.61289 3.57143 9.44531ZM7.85714 9.44531V8.42969C7.85714 8.26211 7.73661 8.125 7.58929 8.125H6.69643C6.54911 8.125 6.42857 8.26211 6.42857 8.42969V9.44531C6.42857 9.61289 6.54911 9.75 6.69643 9.75H7.58929C7.73661 9.75 7.85714 9.61289 7.85714 9.44531ZM10 2.84375V11.7812C10 12.4541 9.52009 13 8.92857 13H1.07143C0.479911 13 0 12.4541 0 11.7812V2.84375C0 2.1709 0.479911 1.625 1.07143 1.625H2.14286V0.304688C2.14286 0.137109 2.26339 0 2.41071 0H3.30357C3.45089 0 3.57143 0.137109 3.57143 0.304688V1.625H6.42857V0.304688C6.42857 0.137109 6.54911 0 6.69643 0H7.58929C7.73661 0 7.85714 0.137109 7.85714 0.304688V1.625H8.92857C9.52009 1.625 10 2.1709 10 2.84375ZM8.92857 11.6289V4.0625H1.07143V11.6289C1.07143 11.7127 1.1317 11.7812 1.20536 11.7812H8.79464C8.8683 11.7812 8.92857 11.7127 8.92857 11.6289Z" fill="#615C5C"/>
</svg>
