<svg width="11" height="11" viewBox="0 0 11 11" fill="none" xmlns="http://www.w3.org/2000/svg">
<path d="M5.5 0C2.46236 0 0 2.46236 0 5.5C0 8.53764 2.46236 11 5.5 11C8.53764 11 11 8.53764 11 5.5C11 2.46236 8.53764 0 5.5 0ZM7.32498 7.93064C7.23849 8.01669 7.14778 8.10696 7.07415 8.18081C7.00784 8.24734 6.96105 8.3294 6.93732 8.41833C6.90383 8.54385 6.87677 8.6707 6.83153 8.79246L6.44587 9.83147C6.14071 9.898 5.8249 9.93548 5.5 9.93548V9.32827C5.53748 9.04839 5.33056 8.52411 4.99812 8.19167C4.86506 8.05861 4.79032 7.87808 4.79032 7.6898V6.9799C4.79032 6.72175 4.65127 6.48446 4.42528 6.3596C4.10659 6.18329 3.65329 5.93689 3.3428 5.78054C3.08821 5.65236 2.85268 5.48913 2.64089 5.29819L2.62315 5.28222C2.47169 5.1455 2.33721 4.99107 2.22262 4.82226C2.0146 4.51687 1.67573 4.01456 1.4555 3.6881C1.90948 2.67903 2.7276 1.86867 3.74421 1.42845L4.27669 1.6948C4.51266 1.81278 4.79032 1.64135 4.79032 1.37744V1.12683C4.96752 1.09823 5.14782 1.08004 5.33123 1.07317L5.95885 1.70079C6.09746 1.8394 6.09746 2.06405 5.95885 2.20266L5.85484 2.30645L5.62552 2.53577C5.55633 2.60496 5.55633 2.7174 5.62552 2.78659L5.72954 2.8906C5.79873 2.9598 5.79873 3.07224 5.72954 3.14143L5.55212 3.31885C5.5188 3.3521 5.47366 3.37076 5.42659 3.37075H5.22722C5.18109 3.37075 5.13673 3.38871 5.10347 3.42109L4.88347 3.6351C4.8565 3.66136 4.83857 3.69551 4.83228 3.73262C4.82598 3.76973 4.83163 3.80789 4.84843 3.84157L5.19417 4.53329C5.25317 4.65127 5.16734 4.7901 5.0356 4.7901H4.91052C4.86772 4.7901 4.82647 4.77458 4.79431 4.74663L4.58851 4.56788C4.54193 4.52748 4.48565 4.4999 4.42518 4.48784C4.36472 4.47579 4.30216 4.47968 4.24365 4.49913L3.55238 4.72956C3.4996 4.74715 3.4537 4.78091 3.42118 4.82605C3.38866 4.87119 3.37117 4.92542 3.37119 4.98105C3.37119 5.08151 3.42796 5.1731 3.51778 5.21812L3.76351 5.34099C3.9722 5.44544 4.2024 5.49978 4.43571 5.49978C4.66901 5.49978 4.93669 6.105 5.14538 6.20946H6.62573C6.81401 6.20946 6.99431 6.28419 7.1276 6.41726L7.43121 6.72087C7.55805 6.84775 7.62928 7.01982 7.62925 7.19923C7.62921 7.33518 7.6023 7.46978 7.55009 7.5953C7.49787 7.72081 7.42137 7.83478 7.32498 7.93064ZM9.24798 5.90474C9.11958 5.87258 9.00758 5.79385 8.93417 5.68363L8.53542 5.0855C8.47708 4.99812 8.44594 4.8954 8.44594 4.79032C8.44594 4.68525 8.47708 4.58253 8.53542 4.49514L8.96988 3.84357C9.02133 3.76661 9.09186 3.70407 9.1748 3.66282L9.46266 3.51889C9.7625 4.11591 9.93548 4.78744 9.93548 5.5C9.93548 5.69228 9.91907 5.88056 9.89512 6.06641L9.24798 5.90474Z" fill="#6B6A6A"/>
</svg>
