<svg width="12" height="10" viewBox="0 0 12 10" fill="none" xmlns="http://www.w3.org/2000/svg">
<path d="M11.9046 2.74286C8.58261 -0.914955 3.41605 -0.913616 0.0954216 2.74286C-0.0294535 2.88036 -0.031891 3.11317 0.0888591 3.2558L0.730859 4.01406C0.845985 4.15022 1.03123 4.15313 1.15086 4.02254C3.88686 1.03862 8.11274 1.03795 10.8493 4.02254C10.9689 4.15313 11.1542 4.15 11.2693 4.01406L11.9113 3.2558C12.0319 3.11317 12.0294 2.88036 11.9046 2.74286ZM5.99999 7.14286C5.33717 7.14286 4.79999 7.78237 4.79999 8.57143C4.79999 9.36049 5.33717 10 5.99999 10C6.6628 10 7.19999 9.36049 7.19999 8.57143C7.19999 7.78237 6.6628 7.14286 5.99999 7.14286ZM9.80005 5.27701C7.63893 3.00179 4.35861 3.00424 2.19992 5.27701C2.07055 5.41317 2.06642 5.64955 2.18924 5.79375L2.83499 6.55246C2.94749 6.6846 3.12861 6.69353 3.24842 6.57031C4.82249 4.95045 7.18105 4.95402 8.75136 6.57031C8.87118 6.69353 9.0523 6.68482 9.1648 6.55246L9.81055 5.79375C9.93355 5.64955 9.92924 5.41295 9.80005 5.27701Z" fill="#716D6D"/>
</svg>
